<svg width="1973" height="1973" viewBox="0 0 1973 1973" fill="none" xmlns="http://www.w3.org/2000/svg">
<circle cx="986.5" cy="986.5" r="986.5" fill="white"/>
<path fill-rule="evenodd" clip-rule="evenodd" d="M311 1705.45V1568.36C311 1463.6 479.932 1292.05 667.071 1292.05H1305.05C1492.21 1292.05 1661.12 1463.69 1661.12 1568.36V1706.28C1484.7 1871.7 1247.43 1973 986.5 1973C725.137 1973 487.514 1871.36 311 1705.45Z" fill="#DA8482"/>
<path fill-rule="evenodd" clip-rule="evenodd" d="M828.584 1046.31V1322.5C828.584 1511.01 1142.91 1511.03 1142.91 1322.5V1046.31H828.584Z" fill="#D0A885"/>
<path fill-rule="evenodd" clip-rule="evenodd" d="M1269.65 568.234H704.476C704.476 615.607 699.383 724.901 696.866 791.634C672.612 791.754 652.97 821.687 652.97 858.607C652.97 895.594 672.696 925.58 697.03 925.58L697.644 925.567C702.23 991.314 715.04 1049.57 744.54 1084.63C944.871 1322.77 1029.32 1323.43 1228.91 1085.63C1258.87 1049.95 1271.86 991.447 1276.5 925.567L1277.14 925.58C1301.47 925.58 1321.2 895.594 1321.2 858.607C1321.2 821.687 1301.54 791.754 1277.28 791.634C1274.76 725.141 1269.65 615.981 1269.65 568.234Z" fill="#DDB898"/>
<path fill-rule="evenodd" clip-rule="evenodd" d="M731.189 606.393C702.302 674.38 755.113 829.406 702.468 876.353C705.32 839.246 704.502 822.753 695.397 784.46C664.476 654.606 581.772 453.193 795.474 402.113C906.057 375.687 935.213 331.487 1019.16 331.007C1173.48 330.127 1289.85 416.98 1317.93 538.913C1345.2 637.62 1296.6 699.66 1274.92 798.42C1267.61 831.806 1264.34 845.34 1267.61 888.033C1250.93 843.393 1251.15 828.7 1256.55 754.086C1264.69 587.766 1123.68 598.753 1003.18 641.886C914.849 673.5 815.524 724.553 731.189 606.393Z" fill="#5C534B"/>
</svg>
